<mxfile host="Electron" agent="Mozilla/5.0 (Windows NT 10.0; Win64; x64) AppleWebKit/537.36 (KHTML, like Gecko) draw.io/24.7.17 Chrome/128.0.6613.36 Electron/32.0.1 Safari/537.36" version="24.7.17">
  <diagram name="Page-1" id="9f46799a-70d6-7492-0946-bef42562c5a5">
    <mxGraphModel dx="870" dy="1307" grid="1" gridSize="10" guides="1" tooltips="1" connect="1" arrows="1" fold="1" page="1" pageScale="1" pageWidth="1100" pageHeight="850" background="none" math="0" shadow="0">
      <root>
        <mxCell id="0" />
        <mxCell id="1" parent="0" />
        <mxCell id="QLCNgAZk5INnTa96BRso-3" value="" style="rounded=1;whiteSpace=wrap;html=1;fillColor=none;strokeWidth=3;dashed=1;dashPattern=8 8;" vertex="1" parent="1">
          <mxGeometry x="40" y="40" width="280" height="640" as="geometry" />
        </mxCell>
        <mxCell id="QLCNgAZk5INnTa96BRso-4" value="&lt;h1&gt;Client App&lt;/h1&gt;" style="text;html=1;align=center;verticalAlign=middle;whiteSpace=wrap;rounded=0;" vertex="1" parent="1">
          <mxGeometry x="80" y="50" width="200" height="40" as="geometry" />
        </mxCell>
        <mxCell id="QLCNgAZk5INnTa96BRso-75" style="edgeStyle=orthogonalEdgeStyle;rounded=0;orthogonalLoop=1;jettySize=auto;html=1;entryX=0;entryY=0.5;entryDx=0;entryDy=0;" edge="1" parent="1" source="QLCNgAZk5INnTa96BRso-5" target="QLCNgAZk5INnTa96BRso-9">
          <mxGeometry relative="1" as="geometry" />
        </mxCell>
        <mxCell id="QLCNgAZk5INnTa96BRso-5" value="&lt;h2&gt;Web App&lt;/h2&gt;" style="rounded=1;whiteSpace=wrap;html=1;fillColor=#EDEDED;" vertex="1" parent="1">
          <mxGeometry x="80" y="360" width="200" height="120" as="geometry" />
        </mxCell>
        <mxCell id="QLCNgAZk5INnTa96BRso-7" value="" style="rounded=1;whiteSpace=wrap;html=1;fillColor=none;strokeWidth=3;dashed=1;dashPattern=8 8;" vertex="1" parent="1">
          <mxGeometry x="360" y="40" width="1240" height="640" as="geometry" />
        </mxCell>
        <mxCell id="QLCNgAZk5INnTa96BRso-8" value="&lt;h1&gt;Local Host&lt;/h1&gt;" style="text;html=1;align=center;verticalAlign=middle;whiteSpace=wrap;rounded=0;" vertex="1" parent="1">
          <mxGeometry x="400" y="40" width="320" height="40" as="geometry" />
        </mxCell>
        <mxCell id="QLCNgAZk5INnTa96BRso-13" value="" style="group;verticalAlign=top;" vertex="1" connectable="0" parent="1">
          <mxGeometry x="400" y="320" width="200" height="200" as="geometry" />
        </mxCell>
        <mxCell id="QLCNgAZk5INnTa96BRso-24" style="edgeStyle=orthogonalEdgeStyle;rounded=0;orthogonalLoop=1;jettySize=auto;html=1;exitX=1;exitY=0.5;exitDx=0;exitDy=0;" edge="1" parent="QLCNgAZk5INnTa96BRso-13" source="QLCNgAZk5INnTa96BRso-9">
          <mxGeometry relative="1" as="geometry">
            <mxPoint x="239.99999999999977" y="99.75" as="targetPoint" />
          </mxGeometry>
        </mxCell>
        <mxCell id="QLCNgAZk5INnTa96BRso-9" value="&lt;h2&gt;Angular Web App&lt;/h2&gt;" style="rounded=1;whiteSpace=wrap;html=1;fillColor=none;strokeColor=default;strokeWidth=2;dashed=1;align=center;verticalAlign=top;" vertex="1" parent="QLCNgAZk5INnTa96BRso-13">
          <mxGeometry width="200" height="200" as="geometry" />
        </mxCell>
        <mxCell id="QLCNgAZk5INnTa96BRso-10" value="" style="shape=image;imageAspect=0;aspect=fixed;verticalLabelPosition=bottom;verticalAlign=top;image=data:image/png,iVBORw0KGgoAAAANSUhEUgAAANoAAADnCAMAAABPJ7iaAAAAxlBMVEX///+1LjHiMje9LzLiMDW0Ki3iLjPhHSSxFxy0LC/30dLr0dG9TU/hJCrlUFTiLTKyHiKzJCiyHSHhKC3hISjgFh6wERb++vrgFR378/P86uvvmpzoZ2qwDRP97/D63t/lSU3qdnn1wMHkP0TnXGC9PUDPgoPfpKXpa2741db64uPshYf0vL3yr7Hwn6D2yMnEXF7jsLHJa23tj5DoxMXWlZa7QEPpx8jhs7Tyq6zLdXfqe37XkJGvAAPGVVjKZWfgAA+6AAM1VZCQAAAPn0lEQVR4nN1d6VriwBIFTEiiIiQggSigIziKC+M2jvu97/9SNyEsWap6rQa95+d8I+GkQ1WdU9WdSmVjiGbh5i62QQxvjnvdwetjf9tfhBj969Om07R2qr5bfX3+P2I3e6s5batWi6lVq57fnbw+b/srkeDyIeVVW1CLYfuuf/7T2U1vz3oLXhlq6doF73s/NqpEL2OnUa+tkaGWIH4yfyS74fVFs9Os5VCgljyZ3f3zvW1/VTnMTmtxQKzVONTS393fp9G2v68oLq/aTrvEC6GWsGu5O7+n2/7WfIyOsoFDiFoSVVqD/ado29+dhei2EDhEqc3XbvDnu65dXEmVAocEtYRdEHzefT92s4t2pxw45KjFD6YdtPbvvlMhtnvlAAFRgVrK7uPzm7CLA8chFjgUqKVP5uD+brhlXtPbA1bgUKSWFGKuf/9ve+yGN+N2gxk4lKkliAXQ1+M2CrHw17HDDRxa1OZrF9z/2zCv2VtHJHBoUkvZDc43Js3DywfRwKFPLWW3c74JaT46OnDaooGDhFp1I9J8+HLQEA6IhNSqc4kwMSaAwutxTzJwEFJL2bnvl+S8+rO3hiMR6E1QS5BI8xFhRgh3r9QCBz21uUTYfycSr6OHE9XAYYLanJ27ry/No5eTjnrgyKP9aRNxS9gFEx15178Z9xp17QdxgeY4sj0ybrFEaA0mv5Wkef/XqXbgyMG5qZz7dNQSzKW5JLskcMDejTLqZ/1K9EFLbc7O/boTZxdXUh1aXjEaR/EnvxIvW4JYvPqfQgIouj2jCYh5WO3k4tMBPbWUnft5x053w5ckcJDzitG+ml/g3sCyLdnF0hwroofXp222J6WBXhqp91xD1BL4buv1sfxkhkkXTKdCZKN5sbjOl6llW7Kr3ufl3eWVgcCRRW93caVHk8uWIJZ33v3j4mrToxpBhchEc7y6i/t0JQmD3eA1ZpdUHGZ5xXCuV9T+mV62BbuPqDJum+YVp+uTTGCemF+2BIOwcrUBap2XzO/6bkPLFlZuG8aZWbVczPIJi2QU9melct0xTq3xkMszv4MNUPPPK5WZY5qZ5eTL1z6ltkGpvceh/9A0tfZpoTx4apmn1vodlyE909R6Ra0fbeDX5ia2pWU4qzWPK0Wcm1+2QVJLHhip9NdwZiVq5pfNCxJqF6aK/RTNgxIzM5I0B3uS5JsHsznbuQGojVzDy+bfJ5cxm7MTSwSAYW1T9V+Tq5jN2Z1biFllz4yTsKZ2nlxl12TOtizEj/ljtkgO7ubhymTOXlgiZTx3jVLrzvtVQzJ/GEAPNa8JXXIA7rxM6J+YS2wrS6QMo06CZ6dl67G5xNbDO32hSSfB3k8vcmossWUskTLuDGob+096DXM52/nFoBYadBL8r/QaL6Zyds4SKcOgJE3UWgJjYjRniQDLFhirttyFETkyRA2psdYwJ0ndxZDJ1JAfPm87sdA3VSR7wWLCZHhmhJrV5nb0qLukK2r28nkxI0bbbzxmlcjQsnnV5RXGRnI2XmMZXzb77/ICRnI2M10vMWoZWbZUiCY4MpHYDsuWCAAzXdLEqUthQozWIUukjD0jv7ZgNfpqImdn2k5MGJGk7uqJuaRvsNXPBMffnk04Cd1VBIvoczZiiQD4a2DZPtYfX6OmZtWEZ/QfDTgJ7vrjz6hzNmqJbGTZ1mmNXmdbHYl5PvrmdurUpaBu+rZhS+Qd/NeQfNnWaY1ejMKWyPQDnmcnl6RBhto1bWIDOxhx0dPdB/+9XyVeNjdzC4kNZNgSCc92BvCgPrUkHWQkcETaGa2fgASunZ2l0VRcNtp2m9fNlguk1MC2UyKddqoBvGy02saeZKlRliOIJTLqJYdyvILUhqTV1lrSJKDU2Ygl8taOqXkBPJ5P2iXNpjVSMWrVQUukf2glWxiQZZt2CX9tfi5/EopRxBK5bcx3Z3guXKdQLlvaW1vihU6MOvAjF5ep840n+adlBUpJ2s3dvV9kiQ2YEplfoLM8AKcLawLC5nY394sYkXVGV5O4eSQFeLpdyIcryWe6ItnP3bw+VWJDLJFRZ3lsUdUbwHY5WZfU3s8J/JBqmgmxROZ9rsUmr9YT+F/IuqT5tFYJiZq+iCXSn9+5BTWvCi8bVbutmF+IppkQS+RmHqWWW/OymiMDKknaKvyYacQoZomkBsXqHK0JvGxVmvi/7K0tQZOzC5O4S8zS+LvaUOnCy0Y0b+0WSvAbipxtteFSY/G0r6jlS/MVaCSp1yrUDCRitDSJmyJy8ge7xTcWPrPhicJJ8KqFH8WUgtohPCXysHjY19TsCfgfhxTz1nbRpYgIEhtiifSXTdfM5mVk2d4JnIRkwD9/fYLEhrSdVp5ShlrWBM3eYAInoZCxKxSdUcQSWX9ydst5MUIvQKBtWqXwq5+zEUvkcvUrzlIrPTYpCPaSlm+ads7GpkTeVh+cOyjAhe1W/S5p+YO1J5A7sCUydKCjL+OfBOzbjXSXzQtKuVVXjFoWPCWSuWX54x2KRcMCupLU80sfealJDWs7ZZJKnlo5ks2hO7jr7ZQ+UnOayerAlkj2YSgcytGF/0KzuV3K2PFvQq8zilgiuZxSPIsVXjZNSQrZSno5G7FE5sYBQq36ARfTeoO7eaeufH+lgaXrXEopUkPs1n9aRXIAlHBaBjJiieSf8iI1LwCDqt7gLpQvdSaQ62fwouWd29LZPojdqtUlhfwyHTHqwJO4Yb5LUqLm+XAu1HGSB8DnaUwzYZZI4SPLJzIVHRr9ZQPSWpyz1VcNsUSKJXeZmmeD90SjS7qcgs8hUh7UsppwFC/uQwLO0Qpgu1VdksL+rfLhFYglsjIOGNQ8H5QL6pIUpqY6XG0hbafKYeEDodPPkGVTbm5DGTvO2YrlCDaJWwq5EDUvAP92qrpsXfC38aaY2LBJ3FJ/HDyzDnHJVZ0EuA2kKEaxdL1birggNcRuVe2StkBqihPIiCVSOW3UC2ju2AC64K+j8kdp2Qq9tSXUcjY2iRsdlLEP4gteNiUnARtwUGr6opO4wkdvIv9RSdsgVanSERaYJaIPpcFdpHJTmmaSmcSVhMqyIc6tyjQT1naigEqXFE5rcUyT19nIJC4JFAZ3ARMyhYIYdWBLhAbyW4C9CTKDLz+BjFkiNJDvkiKjpCoTyMzNyfqQHtxF/L9YjMomNqzGokJfdncbkrErlaFsYkMsETrIStJyb22BvuQRFoXz2gxgOJBbNqSzJT/NhFkihJCUpEj3pyK7tcZqmn+Lk9wWYM9HCwi5zqjA5mR9SElSRPslkMrZVoP+rQFl7Mmck4DMNSSQmkAW2pysD5kuKdL7TyAlRoHz2kxAxklA1FoCmWkm0+l6BYkuKdSAWiCSSGyim5O1IdElxdRaJZmmEk5sVg0ORuEuA3scwN9KvN3mMnSIuMuKWSKz/zg4ui4TAzgriUtSl7GtWHiayWoin8L6BN5rQbAoILpsngv//RzCORursaasdg+PmufB90t0cBfsrS0haiCjlghzhJn7MhfEJO8LLhsqRBOIilHUEmHGIS41rJoQ7JIieyNSiE4gY5YIO+fzX8HThaN3X2xMHm5ALTASax8ik7g86cCnhlVKYpIUmfpNITjNhFkinI3CAi9OQuL/UKjdhgx9LSCUs+s15K85+yAEqGHmhpAkheYq1hAykFFLhHNjBKh5Phz/hd7dw0prYjnbqiOCjzctKvImLyzKCUhShlpLICJG0fPaeP6DCDX7L3zfBOatGZImgcA0E2qJTHnhVej9a1iY489bM9Oa0AQyaolwN1MJUcNKCv67e1ATMgU/Z6OWSMiNrmJvzesi2obb3GaotQQRlxo2iSuw4GLUsPjPlaQDzklJDi9no5YIP7iKUcM2bvO6pB5LrSXgbYhC204CZ14LvsYRCwccSYrtrl3hgHPvUUtEYEemIDVktoknSW1oXDALzjST1cT+UGDkUPTlm1j8Z0tStAG1BEeMomfiiuxbEaWGlhXMIpmTsXk5G7VEhEbphV+ZGiC9JKYkRST6GmwxibaduJWIFDWsb8t8dw+WD1dgHmFhNbAmT3FgVY+a10Kuw2puYyMjKzCnmbBJXIFKRIoaOo/E2ALM6K0twZhmsjpY20ls85s4NTRH4ZLU/svtPjPEKN52ErNmJd687CIODj64y3TquN8SnRKZcsszWWpo/EclKTjgnwcuRlFLRPRsCJn3ZXeR+D/CRgm5aY2Vs7FJXOFpQxlq6POFdUmZTl0KdALZamI9cFHPWeot51gsxwZ30ZGRNVAxih9hL7qpT4oa+oAhXVLkoL8sMHGC11h8+apCzfOQYA5vAV6+vYUF7IU89fHNzcvt7dHDw9XV1dvp6cXxeDw+ODg5ORPePytFLV62fzEeHx+fn5/39vam02kUDfthCC8bcsxHDug0U73T6TQajXaKZox6cz6+L9z/lqNW9YNg1TDtxhgsAD6QHBMyhbkX8khSk7sP/LSmvrVmu9Q4JmSKq+LerB9AzQu4dX+C/kPD0BumTVHzWj5Phi4RnZp5jbshan5wLjFyennsGHgJihFqdvdechfF7Eysmt8yNa/7ya9CSnhpU7+bgZyaF9hsnx9D+NCkjSfU1FqeaPQoI3ojjSe01PzWu9bA+uXxIV08oaRmD161h7oJ4wkdNXvwhzlIIYqbOlE8oaJmuxO+7hRDeFQniSc01LygyhpYkkV05RDEExJqLf+JeLsLRTwhoOZ/nAu/AEcc+vFEm1ocPQxtTb2pdbTIaVKz3X2FokoQ4VFNJ1hqUfPcCd9p1EEcT9RFuA61lv1beHu+KkbHPdV4ok7NTPQoY/dEUcypUrO7X+Z3yi1wfaYUT9So2a6KJFNGeKsST1Soee5fNUmmjuhBPp4oUNtE9ChjetyTLL5kqXn+h54kU8fugVw8kTXG3fuNhEUY11LFlxQ12/2zyehRhlQ8kaDmufubjh5lDMXjicRITPVuC9GjjOhCMJ6IDg36g6dvQSzB7rhDN+3jB69bCoswrk8E4onQnL97T2LoECJ84ccTgZ1Q3U8qQ4cSw4dDTjzhbqgMdsxKMnVEF2xziE3N87nDmttEHE9Ud/j6LZku2Tbw6wCPJwxqcfQwd9YYFcIX1GxGqdlKXbItoB/HE5AcQs1zd7ZfVIkiOgXjCUjNiyXZtr+vFC7HADnwcGDNLtk2AMSTMjW/q98l2wZumoV4UqRmD7YsydQRxnoHP8/f/knRo4xhrhmepUbcJdsGLo/X8SRDzSfvkm0Ds1U8WVH7qdGjjGU8WVCj6rF/DxzNh/Xm1Ah77N8Dw6tGuzZ/Ffjkp0ePMkbHh82dlr8Nn9s8Zgf/3UyXbBvYMLH/AYJ3pvR0aThlAAAAAElFTkSuQmCC;" vertex="1" parent="QLCNgAZk5INnTa96BRso-13">
          <mxGeometry x="56" y="62.5" width="88" height="93.25" as="geometry" />
        </mxCell>
        <mxCell id="QLCNgAZk5INnTa96BRso-26" style="edgeStyle=orthogonalEdgeStyle;rounded=0;orthogonalLoop=1;jettySize=auto;html=1;exitX=1;exitY=0.5;exitDx=0;exitDy=0;" edge="1" parent="1" source="QLCNgAZk5INnTa96BRso-15">
          <mxGeometry relative="1" as="geometry">
            <mxPoint x="880.0000000000002" y="419.75" as="targetPoint" />
          </mxGeometry>
        </mxCell>
        <mxCell id="QLCNgAZk5INnTa96BRso-15" value="&lt;h2&gt;API GateWay&lt;/h2&gt;" style="rounded=1;whiteSpace=wrap;html=1;fillColor=none;strokeColor=default;strokeWidth=2;dashed=1;align=center;verticalAlign=middle;" vertex="1" parent="1">
          <mxGeometry x="680" y="360" width="160" height="120" as="geometry" />
        </mxCell>
        <mxCell id="QLCNgAZk5INnTa96BRso-22" value="" style="endArrow=none;html=1;rounded=0;strokeWidth=3;" edge="1" parent="1">
          <mxGeometry width="50" height="50" relative="1" as="geometry">
            <mxPoint x="640" y="560" as="sourcePoint" />
            <mxPoint x="640" y="280" as="targetPoint" />
          </mxGeometry>
        </mxCell>
        <mxCell id="QLCNgAZk5INnTa96BRso-23" value="" style="endArrow=none;html=1;rounded=0;strokeWidth=3;" edge="1" parent="1">
          <mxGeometry width="50" height="50" relative="1" as="geometry">
            <mxPoint x="880" y="640" as="sourcePoint" />
            <mxPoint x="880" y="200" as="targetPoint" />
          </mxGeometry>
        </mxCell>
        <mxCell id="QLCNgAZk5INnTa96BRso-25" style="edgeStyle=orthogonalEdgeStyle;rounded=0;orthogonalLoop=1;jettySize=auto;html=1;entryX=0;entryY=0.5;entryDx=0;entryDy=0;" edge="1" parent="1" target="QLCNgAZk5INnTa96BRso-15">
          <mxGeometry relative="1" as="geometry">
            <mxPoint x="640" y="420" as="sourcePoint" />
            <Array as="points">
              <mxPoint x="660" y="420" />
              <mxPoint x="660" y="420" />
            </Array>
          </mxGeometry>
        </mxCell>
        <mxCell id="QLCNgAZk5INnTa96BRso-28" value="&lt;h3&gt;Post Service&lt;/h3&gt;" style="rounded=1;whiteSpace=wrap;html=1;fillColor=none;strokeColor=default;strokeWidth=2;dashed=1;align=center;verticalAlign=top;" vertex="1" parent="1">
          <mxGeometry x="960" y="200" width="320" height="120" as="geometry" />
        </mxCell>
        <mxCell id="QLCNgAZk5INnTa96BRso-43" style="edgeStyle=orthogonalEdgeStyle;rounded=0;orthogonalLoop=1;jettySize=auto;html=1;entryX=0;entryY=0.5;entryDx=0;entryDy=0;" edge="1" parent="1" source="QLCNgAZk5INnTa96BRso-31" target="QLCNgAZk5INnTa96BRso-32">
          <mxGeometry relative="1" as="geometry" />
        </mxCell>
        <mxCell id="QLCNgAZk5INnTa96BRso-51" style="edgeStyle=orthogonalEdgeStyle;rounded=0;orthogonalLoop=1;jettySize=auto;html=1;entryX=0;entryY=0;entryDx=30;entryDy=110;entryPerimeter=0;" edge="1" parent="1" target="QLCNgAZk5INnTa96BRso-31">
          <mxGeometry relative="1" as="geometry">
            <mxPoint x="880" y="275" as="targetPoint" />
            <mxPoint x="880" y="280" as="sourcePoint" />
            <Array as="points">
              <mxPoint x="940" y="280" />
              <mxPoint x="940" y="280" />
            </Array>
          </mxGeometry>
        </mxCell>
        <mxCell id="QLCNgAZk5INnTa96BRso-31" value="" style="verticalAlign=top;align=left;spacingTop=8;spacingLeft=2;spacingRight=12;shape=cube;size=10;direction=south;fontStyle=4;html=1;whiteSpace=wrap;fillColor=#FF3333;strokeColor=#FFFFFF;" vertex="1" parent="1">
          <mxGeometry x="990" y="250" width="110" height="50" as="geometry" />
        </mxCell>
        <mxCell id="QLCNgAZk5INnTa96BRso-32" value="SQL Server" style="shape=datastore;whiteSpace=wrap;html=1;fillColor=#FF3333;strokeColor=#FFFFFF;fontColor=#FFFFFF;" vertex="1" parent="1">
          <mxGeometry x="1150" y="245" width="60" height="60" as="geometry" />
        </mxCell>
        <mxCell id="QLCNgAZk5INnTa96BRso-34" value="" style="shape=image;imageAspect=0;aspect=fixed;verticalLabelPosition=bottom;verticalAlign=top;image=data:image/png,UklGRmYKAABXRUJQVlA4TFkKAAAv/8F/EMcHN7ZtV806Dw8x/RdAXyhUav89ckU4aBtJkly7ex9/oMdg4raNJEdiz73MP8v33tPTkCNJkqRsZlrZzv3bC0HQAGnRiRca3NBWmXd4wKmKB4ReyZPAd4/l4OeLQZy1/exTOMKNpOhApv8yJOrRVGg7FljqNPLYh0S9gRglqLCw2ppaIDgi24GnauCSQlLBESWgk1QJXGBMGw4A6RiA9wUUgUQldBTuhO7UkBL+FRyApwoEASARWAKjZAJBIAAN04aREgg0EwRiIkbgEBCi/zCMyP5fAReAEP2FEbMDIIgpBMQ3TAoECtCw7CAUAmLQhgtATAGAYQmICQpBiNFwCQgCsoBAMEwDF2D6G5nCBJUgkPCPBaPwQfTPbH7RcAgIAriBEM7U/774IABBgL6FlxF222vrtfU6h7rzZTRDIlKfcxxZven4un6vnvs4BPvV64zeCrx+4/h//t0cePEy/GHbpryp9n9XkiYt7u5W3N3d3d3doYLbEtzd3d29kLKKy4KGSdoEqQtepLT/L/JAJ/fMXNdjd0T/JwB0/+v+1/2v+1/3v+5/3f+6/3X/6/7X/a+/08S7kZ4Y71N0/+n+0/2n+0/333+pm817eXrSHV94N+8F3UTt5r2du928V0OvJoz3Rm7yMt5ruGO8T9H99381vKW+9mzhZ9JLDmHsdgXK+539c+FnsmvPfny/LNElh7hhbOFXkvuN/av3yxBcO/aTgSZqS77+M2xPLLEtZj8fkp/U2rBfGVqB0FIe/hLmGm4gs8nsV6/0IrI8Eb+MrUmhsa0sDfclU5gvS9PjnwnscNqwY5/JqyVL6zPpqWt3mrEDqbRVgnG43khay3hg/pQVE84F60JYkxmfjpZkZQnihAVnoqoWjNuTJqKazQ+bS1OmYI5crUiqHOM5KImiZnPFVlLUFb5Ya0WJ/sh7jJv0H3nP5e4j78W1LJFx/ihVTZR+MG+sFzlt5+5FHDFZXnDH5hLTG8Z/eFZaquYBzJ+WZntCRDwpnfAENpmSDKEecd9LXsrZeE9w09zGe0k3WW2813UXwvt7d3ttnG9Iu2jmmZXlpRLjvZCbJoz3Rm7yMt5ruGO8T3F3jHG+Lu2aeMhOQvroIfYoOhrlIawHHa3wlH10dNBTnJ/J6JynsMpkdMdj5pORw2MeU5GReazrGxH5eA5rR0RJHtSLiOI9aIW7L1kLNS5T833njj9s0KxQRh9KyeBBx72L1xz/x+nb7Je+vn5qZe8qhXwo5LMH2V0s7V1X1vVrlUQc3z2IX/vRcS3MhAFO7fvnjQVtLGTxUgyMsSv9YokiSBiMvZ4TTRKnBMKYbXgqQWwWCmORRenBTzDMOTaVGoaKhrHI4sRQWTzMMTKVFHIIiLELRSjBEioi5hibSgdwRkiMHSGEQEFNIYR3Ygr9SgiZxDQeCAGeiSgihhSmiWgukEJlAYVnpoX0r8UzE2gB/hBORDQ1lBPOPKAGr1uCeR1FDjBDMKOBHnLahRIaRxCwSSj9gSKKiyQoHUnAfoHUAo33Pch7bjcFDvKe4Cb+IO9N3R3nvZO76Qc5n8SLr0sY+wxah7dLRRGeDagy+pUgpgBd9hbDMRNdfB4jBFsuoMqoiS+ZEKsDUZZaHsbEGAAkmbX3EybKk98JInHgHhcT5uVYIMaM9WdeZSINzg50aMnSbvDCICbYF0VBE81JiBuTN2/eom1r9vb74/hrJuBXDUEbKzGqDS4JGjmQai7nAK2cTTRHY0EzD9HMam/QzusUEzHQAtqZYieYS4VAS98wcnXNTAFNbUMuJ0qAxtYmlhvdjKC1H0jlr5HJoL0jCeXu8CTQ4kAyudjpO2jzKhqxBvqCZu8ikNsLyppAw88Rh+1I//wG0Pa/6eL5xRU9CptB+6/Sgy3ozKa5PcvlMYIgb1OAq07LHxcrnCM+FURrpYCdIHQbBbQVm4MAnlrExgiwO4jdgX8v0wvuFf6NAsEHo589r+huo99mEP019PMV3mPsOwzCv4h9TcW3C/mOG8S3CvnKgPgDcO+SRQLG4l49kMBBqHfZLAM1Ua8TyGB5zLtmkoJimFcPpDAK8S5Y5MAQgXdlQRIfo91RgyxsRbuWIIvTse4ISONgpHOVkoeKSLcc5LEgzkVklYjUMJQbATJ5AePupJeKZRhXC6SyF8Idt8hFW4RrCHKZGd/+BNm8iW0vM0jHTmzrCtI5HNmOGuWjGa4584N8ejtQbRTI6HFMu+4tJf6YVgGktD6ibQA5zYhn9z5JCjxBs8ogq/OwbClIaxsku/1ZXr7bcKwMSOw6FFsAMtsVw64kS00+BLO3ALl9jF99QXIno9dho+wkYte9KJDeC7jlKgfy2xe3RoME50CtoyYZgouIdSMLSPEAvHI2AzmOdqLVIJDldVi1wSBNZZHqXDqQZvMDlLLmAYmehFH2diDTWewINQTkegc+zQbJLotOa4yyZbmETMe8Qbo74FJQNMh36m1MevEWZLwXIoW1BClP/xca2euDpE/AIldHkPXo50g0COTdD4cmgcTHvcSgmSD1IxBohUXukm+gz0YzSP5g7PnDC2T/+3Xc+dMM8t8BdRYZQQEtpxBngQWUsIgdbQIsoIjTsMbPAKr4+R7OjAWFrIYxzo6gkoY9+PK8IqhlwTBsudkQVLMPstwvBMppPoMq57OCguYORZRtyaCkXfAk0AxqatiCJI4uoKxRwSgS3BgUtqwLQSJzg9KOxI/1yaC2li3I4RhoANVNeoYaQSVBgd/aEONwPChxHbRw+ZlBkacixZ12oMyGlSixIwYU2rQdHyK6GUCp0x/HhvNvQbXjHqGCyy8V1DvnLUR41hyUvHAwFjin+oCiF7qFAxdKg7pnv48AjrGpoPK5bivf2fyg+Nlvq93N7mZQ/hxXFM61+BNgYPxRZTteApAw3Wo1s3YzAhoa/RXMMf0zoGI3u2rtTABsLPtSqfaWAITMeVGdHlc2AEr6LFKkBx3MgJZVbQp0d2AKYGahp6pzvVsKIGf6BUpzrZMJELRVkLI8rOYFOJoc6FKSE1XNgKetQ5TDvrYk4GrSbLtSvJyXBfC18B51eDo4GXC2/BUlcO4sbwC09RkeIX0hYzMC7uZeape5sE1NLYC/2Vc6ZS1yYCwgcbaVTgm7MjYnYPLbzS65ujWjFKBzjhmh0nR7VjMvQOn0HR/L0FW/lmbAa2OZ/ZJzdnhBQO9sY4NkxbqwWgbAcYtvYKh02E+MbekFmO5d64BTIp7MrhMHCP+58soXMvAwsGpGwPuUtrPvi+zVvjFtvwD6W0r33mkTUPjR6TUTjECGJt/+B23iCD05v0tRE9CjyXfQ8kcujQs/u6xXubwGoMzk5kOWPbZrkPPyzlmDy2Q3A5GmK1Cl/5JTVk1wBJ3ePLdHq5wmINk436rD5mzYHRLGn/XRmXW/j+xRrniUBUjYEF+gdf1OA8dNX7pm17mHDx9ardbnP7pptVrvP3wYeeLg2oWz54wd9qFmuZK5PhlB97/uf93/uv91/+v+1/2v+1/3v+5/3f86zwEA;" vertex="1" parent="1">
          <mxGeometry x="1210" y="220" width="40" height="40" as="geometry" />
        </mxCell>
        <mxCell id="QLCNgAZk5INnTa96BRso-39" value="&lt;h3&gt;Review Service&lt;/h3&gt;" style="rounded=1;whiteSpace=wrap;html=1;fillColor=none;strokeColor=default;strokeWidth=2;dashed=1;align=center;verticalAlign=top;" vertex="1" parent="1">
          <mxGeometry x="960" y="360" width="320" height="120" as="geometry" />
        </mxCell>
        <mxCell id="QLCNgAZk5INnTa96BRso-44" style="edgeStyle=orthogonalEdgeStyle;rounded=0;orthogonalLoop=1;jettySize=auto;html=1;entryX=0;entryY=0.5;entryDx=0;entryDy=0;" edge="1" parent="1" source="QLCNgAZk5INnTa96BRso-40" target="QLCNgAZk5INnTa96BRso-41">
          <mxGeometry relative="1" as="geometry" />
        </mxCell>
        <mxCell id="QLCNgAZk5INnTa96BRso-50" style="edgeStyle=orthogonalEdgeStyle;rounded=0;orthogonalLoop=1;jettySize=auto;html=1;entryX=0;entryY=0;entryDx=30;entryDy=110;entryPerimeter=0;" edge="1" parent="1" target="QLCNgAZk5INnTa96BRso-40">
          <mxGeometry relative="1" as="geometry">
            <mxPoint x="880" y="420" as="targetPoint" />
            <mxPoint x="880" y="440" as="sourcePoint" />
            <Array as="points">
              <mxPoint x="910" y="440" />
              <mxPoint x="910" y="440" />
            </Array>
          </mxGeometry>
        </mxCell>
        <mxCell id="QLCNgAZk5INnTa96BRso-40" value="" style="verticalAlign=top;align=left;spacingTop=8;spacingLeft=2;spacingRight=12;shape=cube;size=10;direction=south;fontStyle=4;html=1;whiteSpace=wrap;fillColor=#007FFF;strokeColor=#FFFFFF;" vertex="1" parent="1">
          <mxGeometry x="990" y="410" width="110" height="50" as="geometry" />
        </mxCell>
        <mxCell id="QLCNgAZk5INnTa96BRso-41" value="SQL Server" style="shape=datastore;whiteSpace=wrap;html=1;fillColor=#007FFF;strokeColor=#FFFFFF;fontColor=#FFFFFF;" vertex="1" parent="1">
          <mxGeometry x="1150" y="405" width="60" height="60" as="geometry" />
        </mxCell>
        <mxCell id="QLCNgAZk5INnTa96BRso-42" value="" style="shape=image;imageAspect=0;aspect=fixed;verticalLabelPosition=bottom;verticalAlign=top;image=data:image/png,UklGRmYKAABXRUJQVlA4TFkKAAAv/8F/EMcHN7ZtV806Dw8x/RdAXyhUav89ckU4aBtJkly7ex9/oMdg4raNJEdiz73MP8v33tPTkCNJkqRsZlrZzv3bC0HQAGnRiRca3NBWmXd4wKmKB4ReyZPAd4/l4OeLQZy1/exTOMKNpOhApv8yJOrRVGg7FljqNPLYh0S9gRglqLCw2ppaIDgi24GnauCSQlLBESWgk1QJXGBMGw4A6RiA9wUUgUQldBTuhO7UkBL+FRyApwoEASARWAKjZAJBIAAN04aREgg0EwRiIkbgEBCi/zCMyP5fAReAEP2FEbMDIIgpBMQ3TAoECtCw7CAUAmLQhgtATAGAYQmICQpBiNFwCQgCsoBAMEwDF2D6G5nCBJUgkPCPBaPwQfTPbH7RcAgIAriBEM7U/774IABBgL6FlxF222vrtfU6h7rzZTRDIlKfcxxZven4un6vnvs4BPvV64zeCrx+4/h//t0cePEy/GHbpryp9n9XkiYt7u5W3N3d3d3doYLbEtzd3d29kLKKy4KGSdoEqQtepLT/L/JAJ/fMXNdjd0T/JwB0/+v+1/2v+1/3v+5/3f+6/3X/6/7X/a+/08S7kZ4Y71N0/+n+0/2n+0/333+pm817eXrSHV94N+8F3UTt5r2du928V0OvJoz3Rm7yMt5ruGO8T9H99381vKW+9mzhZ9JLDmHsdgXK+539c+FnsmvPfny/LNElh7hhbOFXkvuN/av3yxBcO/aTgSZqS77+M2xPLLEtZj8fkp/U2rBfGVqB0FIe/hLmGm4gs8nsV6/0IrI8Eb+MrUmhsa0sDfclU5gvS9PjnwnscNqwY5/JqyVL6zPpqWt3mrEDqbRVgnG43khay3hg/pQVE84F60JYkxmfjpZkZQnihAVnoqoWjNuTJqKazQ+bS1OmYI5crUiqHOM5KImiZnPFVlLUFb5Ya0WJ/sh7jJv0H3nP5e4j78W1LJFx/ihVTZR+MG+sFzlt5+5FHDFZXnDH5hLTG8Z/eFZaquYBzJ+WZntCRDwpnfAENpmSDKEecd9LXsrZeE9w09zGe0k3WW2813UXwvt7d3ttnG9Iu2jmmZXlpRLjvZCbJoz3Rm7yMt5ruGO8T3F3jHG+Lu2aeMhOQvroIfYoOhrlIawHHa3wlH10dNBTnJ/J6JynsMpkdMdj5pORw2MeU5GReazrGxH5eA5rR0RJHtSLiOI9aIW7L1kLNS5T833njj9s0KxQRh9KyeBBx72L1xz/x+nb7Je+vn5qZe8qhXwo5LMH2V0s7V1X1vVrlUQc3z2IX/vRcS3MhAFO7fvnjQVtLGTxUgyMsSv9YokiSBiMvZ4TTRKnBMKYbXgqQWwWCmORRenBTzDMOTaVGoaKhrHI4sRQWTzMMTKVFHIIiLELRSjBEioi5hibSgdwRkiMHSGEQEFNIYR3Ygr9SgiZxDQeCAGeiSgihhSmiWgukEJlAYVnpoX0r8UzE2gB/hBORDQ1lBPOPKAGr1uCeR1FDjBDMKOBHnLahRIaRxCwSSj9gSKKiyQoHUnAfoHUAo33Pch7bjcFDvKe4Cb+IO9N3R3nvZO76Qc5n8SLr0sY+wxah7dLRRGeDagy+pUgpgBd9hbDMRNdfB4jBFsuoMqoiS+ZEKsDUZZaHsbEGAAkmbX3EybKk98JInHgHhcT5uVYIMaM9WdeZSINzg50aMnSbvDCICbYF0VBE81JiBuTN2/eom1r9vb74/hrJuBXDUEbKzGqDS4JGjmQai7nAK2cTTRHY0EzD9HMam/QzusUEzHQAtqZYieYS4VAS98wcnXNTAFNbUMuJ0qAxtYmlhvdjKC1H0jlr5HJoL0jCeXu8CTQ4kAyudjpO2jzKhqxBvqCZu8ikNsLyppAw88Rh+1I//wG0Pa/6eL5xRU9CptB+6/Sgy3ozKa5PcvlMYIgb1OAq07LHxcrnCM+FURrpYCdIHQbBbQVm4MAnlrExgiwO4jdgX8v0wvuFf6NAsEHo589r+huo99mEP019PMV3mPsOwzCv4h9TcW3C/mOG8S3CvnKgPgDcO+SRQLG4l49kMBBqHfZLAM1Ua8TyGB5zLtmkoJimFcPpDAK8S5Y5MAQgXdlQRIfo91RgyxsRbuWIIvTse4ISONgpHOVkoeKSLcc5LEgzkVklYjUMJQbATJ5AePupJeKZRhXC6SyF8Idt8hFW4RrCHKZGd/+BNm8iW0vM0jHTmzrCtI5HNmOGuWjGa4584N8ejtQbRTI6HFMu+4tJf6YVgGktD6ibQA5zYhn9z5JCjxBs8ogq/OwbClIaxsku/1ZXr7bcKwMSOw6FFsAMtsVw64kS00+BLO3ALl9jF99QXIno9dho+wkYte9KJDeC7jlKgfy2xe3RoME50CtoyYZgouIdSMLSPEAvHI2AzmOdqLVIJDldVi1wSBNZZHqXDqQZvMDlLLmAYmehFH2diDTWewINQTkegc+zQbJLotOa4yyZbmETMe8Qbo74FJQNMh36m1MevEWZLwXIoW1BClP/xca2euDpE/AIldHkPXo50g0COTdD4cmgcTHvcSgmSD1IxBohUXukm+gz0YzSP5g7PnDC2T/+3Xc+dMM8t8BdRYZQQEtpxBngQWUsIgdbQIsoIjTsMbPAKr4+R7OjAWFrIYxzo6gkoY9+PK8IqhlwTBsudkQVLMPstwvBMppPoMq57OCguYORZRtyaCkXfAk0AxqatiCJI4uoKxRwSgS3BgUtqwLQSJzg9KOxI/1yaC2li3I4RhoANVNeoYaQSVBgd/aEONwPChxHbRw+ZlBkacixZ12oMyGlSixIwYU2rQdHyK6GUCp0x/HhvNvQbXjHqGCyy8V1DvnLUR41hyUvHAwFjin+oCiF7qFAxdKg7pnv48AjrGpoPK5bivf2fyg+Nlvq93N7mZQ/hxXFM61+BNgYPxRZTteApAw3Wo1s3YzAhoa/RXMMf0zoGI3u2rtTABsLPtSqfaWAITMeVGdHlc2AEr6LFKkBx3MgJZVbQp0d2AKYGahp6pzvVsKIGf6BUpzrZMJELRVkLI8rOYFOJoc6FKSE1XNgKetQ5TDvrYk4GrSbLtSvJyXBfC18B51eDo4GXC2/BUlcO4sbwC09RkeIX0hYzMC7uZeape5sE1NLYC/2Vc6ZS1yYCwgcbaVTgm7MjYnYPLbzS65ujWjFKBzjhmh0nR7VjMvQOn0HR/L0FW/lmbAa2OZ/ZJzdnhBQO9sY4NkxbqwWgbAcYtvYKh02E+MbekFmO5d64BTIp7MrhMHCP+58soXMvAwsGpGwPuUtrPvi+zVvjFtvwD6W0r33mkTUPjR6TUTjECGJt/+B23iCD05v0tRE9CjyXfQ8kcujQs/u6xXubwGoMzk5kOWPbZrkPPyzlmDy2Q3A5GmK1Cl/5JTVk1wBJ3ePLdHq5wmINk436rD5mzYHRLGn/XRmXW/j+xRrniUBUjYEF+gdf1OA8dNX7pm17mHDx9ardbnP7pptVrvP3wYeeLg2oWz54wd9qFmuZK5PhlB97/uf93/uv91/+v+1/2v+1/3v+5/3f86zwEA;" vertex="1" parent="1">
          <mxGeometry x="1210" y="385" width="40" height="40" as="geometry" />
        </mxCell>
        <mxCell id="QLCNgAZk5INnTa96BRso-45" value="&lt;h3&gt;Comment Service&lt;/h3&gt;" style="rounded=1;whiteSpace=wrap;html=1;fillColor=none;strokeColor=default;strokeWidth=2;dashed=1;align=center;verticalAlign=top;" vertex="1" parent="1">
          <mxGeometry x="960" y="520" width="320" height="120" as="geometry" />
        </mxCell>
        <mxCell id="QLCNgAZk5INnTa96BRso-49" style="edgeStyle=orthogonalEdgeStyle;rounded=0;orthogonalLoop=1;jettySize=auto;html=1;entryX=0;entryY=0.5;entryDx=0;entryDy=0;" edge="1" parent="1" source="QLCNgAZk5INnTa96BRso-46" target="QLCNgAZk5INnTa96BRso-47">
          <mxGeometry relative="1" as="geometry" />
        </mxCell>
        <mxCell id="QLCNgAZk5INnTa96BRso-52" style="edgeStyle=orthogonalEdgeStyle;rounded=0;orthogonalLoop=1;jettySize=auto;html=1;entryX=0;entryY=0;entryDx=30;entryDy=110;entryPerimeter=0;" edge="1" parent="1" target="QLCNgAZk5INnTa96BRso-46">
          <mxGeometry relative="1" as="geometry">
            <mxPoint x="880" y="600" as="targetPoint" />
            <mxPoint x="880" y="605" as="sourcePoint" />
            <Array as="points">
              <mxPoint x="936" y="605" />
              <mxPoint x="936" y="605" />
            </Array>
          </mxGeometry>
        </mxCell>
        <mxCell id="QLCNgAZk5INnTa96BRso-46" value="" style="verticalAlign=top;align=left;spacingTop=8;spacingLeft=2;spacingRight=12;shape=cube;size=10;direction=south;fontStyle=4;html=1;whiteSpace=wrap;fillColor=#00CC00;strokeColor=#FFFFFF;" vertex="1" parent="1">
          <mxGeometry x="990" y="575" width="110" height="50" as="geometry" />
        </mxCell>
        <mxCell id="QLCNgAZk5INnTa96BRso-47" value="SQL Server" style="shape=datastore;whiteSpace=wrap;html=1;fillColor=#00CC00;strokeColor=#FFFFFF;fontColor=#FFFFFF;" vertex="1" parent="1">
          <mxGeometry x="1150" y="570" width="60" height="60" as="geometry" />
        </mxCell>
        <mxCell id="QLCNgAZk5INnTa96BRso-48" value="" style="shape=image;imageAspect=0;aspect=fixed;verticalLabelPosition=bottom;verticalAlign=top;image=data:image/png,UklGRmYKAABXRUJQVlA4TFkKAAAv/8F/EMcHN7ZtV806Dw8x/RdAXyhUav89ckU4aBtJkly7ex9/oMdg4raNJEdiz73MP8v33tPTkCNJkqRsZlrZzv3bC0HQAGnRiRca3NBWmXd4wKmKB4ReyZPAd4/l4OeLQZy1/exTOMKNpOhApv8yJOrRVGg7FljqNPLYh0S9gRglqLCw2ppaIDgi24GnauCSQlLBESWgk1QJXGBMGw4A6RiA9wUUgUQldBTuhO7UkBL+FRyApwoEASARWAKjZAJBIAAN04aREgg0EwRiIkbgEBCi/zCMyP5fAReAEP2FEbMDIIgpBMQ3TAoECtCw7CAUAmLQhgtATAGAYQmICQpBiNFwCQgCsoBAMEwDF2D6G5nCBJUgkPCPBaPwQfTPbH7RcAgIAriBEM7U/774IABBgL6FlxF222vrtfU6h7rzZTRDIlKfcxxZven4un6vnvs4BPvV64zeCrx+4/h//t0cePEy/GHbpryp9n9XkiYt7u5W3N3d3d3doYLbEtzd3d29kLKKy4KGSdoEqQtepLT/L/JAJ/fMXNdjd0T/JwB0/+v+1/2v+1/3v+5/3f+6/3X/6/7X/a+/08S7kZ4Y71N0/+n+0/2n+0/333+pm817eXrSHV94N+8F3UTt5r2du928V0OvJoz3Rm7yMt5ruGO8T9H99381vKW+9mzhZ9JLDmHsdgXK+539c+FnsmvPfny/LNElh7hhbOFXkvuN/av3yxBcO/aTgSZqS77+M2xPLLEtZj8fkp/U2rBfGVqB0FIe/hLmGm4gs8nsV6/0IrI8Eb+MrUmhsa0sDfclU5gvS9PjnwnscNqwY5/JqyVL6zPpqWt3mrEDqbRVgnG43khay3hg/pQVE84F60JYkxmfjpZkZQnihAVnoqoWjNuTJqKazQ+bS1OmYI5crUiqHOM5KImiZnPFVlLUFb5Ya0WJ/sh7jJv0H3nP5e4j78W1LJFx/ihVTZR+MG+sFzlt5+5FHDFZXnDH5hLTG8Z/eFZaquYBzJ+WZntCRDwpnfAENpmSDKEecd9LXsrZeE9w09zGe0k3WW2813UXwvt7d3ttnG9Iu2jmmZXlpRLjvZCbJoz3Rm7yMt5ruGO8T3F3jHG+Lu2aeMhOQvroIfYoOhrlIawHHa3wlH10dNBTnJ/J6JynsMpkdMdj5pORw2MeU5GReazrGxH5eA5rR0RJHtSLiOI9aIW7L1kLNS5T833njj9s0KxQRh9KyeBBx72L1xz/x+nb7Je+vn5qZe8qhXwo5LMH2V0s7V1X1vVrlUQc3z2IX/vRcS3MhAFO7fvnjQVtLGTxUgyMsSv9YokiSBiMvZ4TTRKnBMKYbXgqQWwWCmORRenBTzDMOTaVGoaKhrHI4sRQWTzMMTKVFHIIiLELRSjBEioi5hibSgdwRkiMHSGEQEFNIYR3Ygr9SgiZxDQeCAGeiSgihhSmiWgukEJlAYVnpoX0r8UzE2gB/hBORDQ1lBPOPKAGr1uCeR1FDjBDMKOBHnLahRIaRxCwSSj9gSKKiyQoHUnAfoHUAo33Pch7bjcFDvKe4Cb+IO9N3R3nvZO76Qc5n8SLr0sY+wxah7dLRRGeDagy+pUgpgBd9hbDMRNdfB4jBFsuoMqoiS+ZEKsDUZZaHsbEGAAkmbX3EybKk98JInHgHhcT5uVYIMaM9WdeZSINzg50aMnSbvDCICbYF0VBE81JiBuTN2/eom1r9vb74/hrJuBXDUEbKzGqDS4JGjmQai7nAK2cTTRHY0EzD9HMam/QzusUEzHQAtqZYieYS4VAS98wcnXNTAFNbUMuJ0qAxtYmlhvdjKC1H0jlr5HJoL0jCeXu8CTQ4kAyudjpO2jzKhqxBvqCZu8ikNsLyppAw88Rh+1I//wG0Pa/6eL5xRU9CptB+6/Sgy3ozKa5PcvlMYIgb1OAq07LHxcrnCM+FURrpYCdIHQbBbQVm4MAnlrExgiwO4jdgX8v0wvuFf6NAsEHo589r+huo99mEP019PMV3mPsOwzCv4h9TcW3C/mOG8S3CvnKgPgDcO+SRQLG4l49kMBBqHfZLAM1Ua8TyGB5zLtmkoJimFcPpDAK8S5Y5MAQgXdlQRIfo91RgyxsRbuWIIvTse4ISONgpHOVkoeKSLcc5LEgzkVklYjUMJQbATJ5AePupJeKZRhXC6SyF8Idt8hFW4RrCHKZGd/+BNm8iW0vM0jHTmzrCtI5HNmOGuWjGa4584N8ejtQbRTI6HFMu+4tJf6YVgGktD6ibQA5zYhn9z5JCjxBs8ogq/OwbClIaxsku/1ZXr7bcKwMSOw6FFsAMtsVw64kS00+BLO3ALl9jF99QXIno9dho+wkYte9KJDeC7jlKgfy2xe3RoME50CtoyYZgouIdSMLSPEAvHI2AzmOdqLVIJDldVi1wSBNZZHqXDqQZvMDlLLmAYmehFH2diDTWewINQTkegc+zQbJLotOa4yyZbmETMe8Qbo74FJQNMh36m1MevEWZLwXIoW1BClP/xca2euDpE/AIldHkPXo50g0COTdD4cmgcTHvcSgmSD1IxBohUXukm+gz0YzSP5g7PnDC2T/+3Xc+dMM8t8BdRYZQQEtpxBngQWUsIgdbQIsoIjTsMbPAKr4+R7OjAWFrIYxzo6gkoY9+PK8IqhlwTBsudkQVLMPstwvBMppPoMq57OCguYORZRtyaCkXfAk0AxqatiCJI4uoKxRwSgS3BgUtqwLQSJzg9KOxI/1yaC2li3I4RhoANVNeoYaQSVBgd/aEONwPChxHbRw+ZlBkacixZ12oMyGlSixIwYU2rQdHyK6GUCp0x/HhvNvQbXjHqGCyy8V1DvnLUR41hyUvHAwFjin+oCiF7qFAxdKg7pnv48AjrGpoPK5bivf2fyg+Nlvq93N7mZQ/hxXFM61+BNgYPxRZTteApAw3Wo1s3YzAhoa/RXMMf0zoGI3u2rtTABsLPtSqfaWAITMeVGdHlc2AEr6LFKkBx3MgJZVbQp0d2AKYGahp6pzvVsKIGf6BUpzrZMJELRVkLI8rOYFOJoc6FKSE1XNgKetQ5TDvrYk4GrSbLtSvJyXBfC18B51eDo4GXC2/BUlcO4sbwC09RkeIX0hYzMC7uZeape5sE1NLYC/2Vc6ZS1yYCwgcbaVTgm7MjYnYPLbzS65ujWjFKBzjhmh0nR7VjMvQOn0HR/L0FW/lmbAa2OZ/ZJzdnhBQO9sY4NkxbqwWgbAcYtvYKh02E+MbekFmO5d64BTIp7MrhMHCP+58soXMvAwsGpGwPuUtrPvi+zVvjFtvwD6W0r33mkTUPjR6TUTjECGJt/+B23iCD05v0tRE9CjyXfQ8kcujQs/u6xXubwGoMzk5kOWPbZrkPPyzlmDy2Q3A5GmK1Cl/5JTVk1wBJ3ePLdHq5wmINk436rD5mzYHRLGn/XRmXW/j+xRrniUBUjYEF+gdf1OA8dNX7pm17mHDx9ardbnP7pptVrvP3wYeeLg2oWz54wd9qFmuZK5PhlB97/uf93/uv91/+v+1/2v+1/3v+5/3f86zwEA;" vertex="1" parent="1">
          <mxGeometry x="1210" y="550" width="40" height="40" as="geometry" />
        </mxCell>
        <mxCell id="QLCNgAZk5INnTa96BRso-53" value="&lt;h2&gt;Event Bus&lt;/h2&gt;" style="shape=cylinder3;whiteSpace=wrap;html=1;boundedLbl=1;backgroundOutline=1;size=15;horizontal=1;verticalAlign=middle;direction=east;textDirection=vertical-lr;align=right;" vertex="1" parent="1">
          <mxGeometry x="1360" y="240" width="120" height="360" as="geometry" />
        </mxCell>
        <mxCell id="QLCNgAZk5INnTa96BRso-54" value="RabbitMQ" style="shape=image;imageAspect=0;aspect=fixed;verticalLabelPosition=top;verticalAlign=bottom;image=data:image/png,iVBORw0KGgoAAAANSUhEUgAAAeQAAAIACAYAAABTkx/wAAAABGdBTUEAALGPC/xhBQAAACBjSFJNAAB6JgAAgIQAAPoAAACA6AAAdTAAAOpgAAA6mAAAF3CculE8AAAAB3RJTUUH5QEaFToR3W0hygAAAAZiS0dEAAAAAAAA+UO7fwAAE2pJREFUeNrt3XmQ3ndh3/H3d7WSLPAhAWMMtjlsc5twmJhAbBjAEEPCEQgNpJ2MAK8ipmlJM+kfYcAdkpI26RGaNtSV3Fad0EmbTnFLy4SU2JOLYg7TZBhzxoQrxRw+uGzwSvvrH7skBuzaknf3eeR9vWY8MDCS0Gcfnvd+n+f3/HZ0jKZLum+jPdWDqvMbPb6pxzZ6RHVaW8utTf15o09U1zZ6Xyt9pNFNLfT1cVkrcVyaLumEtcf5aWuP8yc09ehG51RnbrE5lpv6eKNPVR9u9MGmrq1ubOqr42CHPWLg2I2jenLa20Lb293oMU09p7q40ZOrnab8LitNfbTRldUfNfWhpj47Lu+IaY6TEO/rxOpxTT29ekF1QaMTLPN9/rK6qql3V1c39elxectmgQ0M8rSvnU09u3pho2dX51TbTHiXbqr+pKl3VFeMg91gkrkO8UJ1fvWS6kerR1eLlrlLX63e29TvN/Vfx+V92iSwAUGelnpw9bpGL6nOFuJj8uXqyuo3x4H+xBxzGOP97e5I+xv9ZPWYvPJzLL5evaepy1rud8ehbjMJrFOQp6WeUv3DRhdW9zHZPXK4+nhT/6L67XGwb5hkbk7Gj2zqTY1eUJ1skXtkpfpcdaCp3xwH+6pJ4B4EeVrqhOqnGr2pOsNU6+pbTf1a9a/Hwa43xwxDvNSORs+t3lw9wSLr7u1Nvb76xDjYZA64cwv/nxi/stEbxHhDnNDo0ka/Mi31IHPMLMaL1YurfybGG+aljd5cnWUKOIYgr52M31g93EQb6qervzctdYopZmD0zLVYPMoYG+pljX5pWhJlOKogT0v94NrL1GK88bY1elX1mmlv282xiafjfT2q1ZepH2GNTYry6jef9zMF3I0gr11N/ct5mXoz3b/Ra9ve80yxSTHe3ylNvaE6zxqbZmejl1ev8M0n3EWQ1943/rm1q6nZPKM6p9HPT0s9dtprkA0+GW/vSK9t9KJ8vnizPbDRUjv6oWn/0d2UCLZMkKe9LVTPavTifLRpVi6ofqzt7TLFhnrC2ufpfbRpNp5Y/VQrXrqGOz4hL7a7emGrN/1gNnY0enWTq6437HS81H2r569Fgdn5iepcp2S4oyAv9JhGz8kduGbt7Bb6UTNskNHDqpfnDlyz9oDq5a20wxRwuyBP+7pvdZHT8VxYrF5thg05HW9r9bPGj7XGXPjpjnR/M8B3n5D3VBc7Hc+Nx037utgM625XU6/0OJ8bJ7XQS8wAtw/y6nuWTzLFXH1NXOm+/que3OgCQ8yVF5gAbv80NXpq3lObr69Jne+zmuts6geq3YaYI6Nzp6X2GAJu9+Rvhjl7mhqd0aKrrdfZ400wd05q9cdcAq2+PHqOGebOCQ13S1vnE/IPGmHuLDZ6qBngO0Eebvg+h3Y2Os0M6+q+Jpg7O5qckOGvg1wPNMPcGbkaeL35Bmc+H+fuDAi3CzLzeEKeOtUM6/rUf7oRAEHmaG3PFcEAgszMfav6ghkABJnZOtzoZjMACDKzNZkAQJABAEEGAEEGAAQZAAQZABBkABBkAECQAUCQAQBBBgAEGQAEGQAQZAAQZABAkAFAkAEAQQYAQQYABBkABBkAEGQAEGQAQJABQJABAEEGAEEGAAQZAAQZABBkABBkAECQAUCQAQBBBgBBBgAEGQAEGQAQZAAQZABAkAFAkAEAQQYAQQYABBkABBkAEGQAEGQAQJABQJABAEEGAEEGAAQZAAQZABBkABBkAECQAUCQAQBBBgBBBgAEGQAEGQAQZAAQZABAkAFAkAEAQQYAQQYABBkABBkAEGQAEGQAQJABQJABAEEGAEEGAAQZABBkABBkAECQAUCQAQBBBgBBBgAEGQAEGQAQZAAQZABAkAFAkAEAQQYAQQYABBkABBkAEGQAEGQAQJABQJABAEEGAEEGAAQZAAQZABBkABBkAECQAUCQAQBBvhdaMQGAIDNbt1SfMQOAIDPr0/FK3zIDgCADAIIMAIIMAAgyAAgyACDIACDIAIAgA4AgAwCCDACCDAAIMgAgyAAgyACAIAOAIAMAggwAggwACDIACDIAIMgAIMgAgCADgCADAIIMAIIMAAgyAAgyACDIACDIAIAgA4AgAwCCDACCDAAIMgAIMgAgyAAgyACAIAOAIAMAggwAggwACDIACDIAIMgAIMgAgCADgCADAIIMAIIMAAgyAAgyACDIACDIAIAgA4AgAwCCDACCzCY7oYVON8P6mPZ3arXNEnNneA4CQZ5326vdZlgnhztDkOfSjkbnmgEEeb5PyJMT8jo+yh9WLRpiLi1O+9tpBhDkeXVSoydN+zvBFOtg6rllyzm1p5XOMQMI8rzaVp3dSmeZ4h62eF8Pb/TkVt8GYP6c0dTTzQCCPM/OrS6YlhqmOMYYX9Jo6uLqbGvMrfs1euL0Kq9ggCDPr93Vy6pHTXuNcYzOafTj1f1NMdfPQRe12DOn/Z6P8H8G5tcPN3p+250ejvp0vNSuRs+vnmKNuffIRi9tpfuZAkFmXt23Wmr0Q6Y4ihhf0rbqGY32VXssclx4SfXCaZ+r4RFk5tdjmvqVacnHoO62bT20enP1OGMcN06tLm3qiaZgqxrTviYzzL0jTf1+9dpGnx4HfM3u8GS81EKrF3D9x0bn+YbzePwi9qGmXt3ow+NgKwZBkJlHK029r9E/qP54HOhbJll7Dt/baLGT194zvrTRo8vV6cexv6he39S7Wu6r45DnKASZ+fSR6kD17nGgj2z5GL+mXS10XvXiRn+zepCHyL3Cl5p6W/X2Vrpm/FvfgCLIzKdbqqurK5r6w7b1yXHZ1nnCmva22PYe0uhJTZ3f6OLqsbk95r3N4erapt7V6ANNfajlPjcOddg0CDLz5ubquurT1furv6w+39QNm/so6pxq1yb8SQ9rand12tqfeUZ1WrXDQ+Fe7bbq+rXH9hfXHu/fbPSpcnJmHk4J3Vh9prpuHGxZkLe2lerWtSeu5bWTxWba2eZcQLWj1duKLjoNb+GnvtXH+crt/hVm7cja4/HW6h3VOzrSNW3rmy20Mi4TZACYlY9Vb23qqrb1iXHZXZ+cfSwEANbfo6vfaPTfWulvTft6iBMyAMzWTdU7m/qXLXfNONQRJ2QA2Hx7qpdXv9r2LpqW7vjHwQoyAGy8nY0ubPU+Ehfd0U/xE2QA2BzbGj2k+p0WO1eQAWCWRic2euu0r4cKMgDMNsrnVX97WuokQQaA2blP9YpGPyLIADBbp1cvm5Y6Q5ABYHYWqmdUT5wuaUGQAWB2HtzoBY1OFmQAmK3nVnsEGQBm6+HVOYIMALO1rdEFggwAszb1TEEGgNm7jyADwKyNzhBkAJi9BwkyAMwBQQYAQQYABBkABBkAEGQAEGQAQJABQJABAEEGAEEGAAQZAAQZABBkABBkAECQAUCQAQBBBgBBBgAEGQAEGQAQZAAQZABAkAFAkAEAQQYAQQYABBkABBkAEGQAEGQAQJABQJABAEEGAEEGAAQZAAQZABBkABBkAECQAUCQAQBBBgBBBgAEGQAEGQAQZAAQZABAkAFAkAEAQQYAQQYABBkABBkAEGQAEGQAQJABQJABAEEGAEEGAAQZAAQZABBkABBkAECQAUCQAQBBBgAEGQAEGQAQZAAQZABAkAFAkAEAQQYAQQYABBkABBkAEGQAEGQAQJABQJABAEEGAEEGAAQZAI4HiyYAtpDl6kvVynH2v/vEao8vnyADHG9uqq6tPl59Zu2fqsNN3VhNx9nfZ1ejk9f+/QOq06szq/Oqs3y5BRlgvk6/U/+j0Tuaurb6SvWNpm4Zl3fLveUvOV3Sjka7Gu1qak+j06uLqx+vHpa3Io9bY9p33H2nCNDaKfeWpj5dHWql326hL1VHWm5lHNoiI1zSaLSt0WJTz6ne2Oicane1zcNEkAE20pHqT5u6ovoP42CfN8lfBXpno+c1Wqp+uNX3nodlBBlgvd1cXVFd1m39n3GoZZPcQZj3dWarL2O/pnq8KAsywHq6rnprU28bB/uSOe4iyntbbHtPbXRp9TyLzDdv/gPHiw9UP9vUv2lZjO/WietQh8fB3lP9bPWvqtusMr9cZQ3Mu5XqfU39XPXBcfC4+wzxPCz4yUaXNrqxel11ilEEGeBovb+pvzMOdo0pjvGkfHlVN01L/XqjsXZidqOROeMla2CefbypXxDjdQrzwW5u6ter3yqvNAgywN1zU/WPqveZYl2jfFNT/7T6I2sIMsBdWa7+XaN3jIMdNse6R/lzTf1y9X+tIcgAd2al+sPq3ze6yRwbZOq9Tb0lV14LMsCd+HL1tnGga8dlxtiwU/Ll3droiurdeT9ZkAG+x5Hq6lZ6pyk2wW39RfWfy+e6BRngu32zqd8al/cVU2zCKflQR5q6qnq/U7IgA/y1qc829buG2ETLfaHV9+y/ZgxBBlg7snXZvelnFx8np+SV6srqi9YQZICqWxr9nhlmEOUD/VlT1+Rla0EGaPXnG19vhllVuatavagOQQa2uPc2+dnGMzN1pROyIAOs3qhiRZBnZrnPNfn4kyADW93hRtd3xAltVsahjlR/bglBBrb26fhTTX1tHDLFjH3MBIIMbPUTsvcv5+CY7CNns7RoAmAOQvDF6lZDzNzNJnBCBra2b66dkpmlqc8YQZABmD0/ilGQAUCQAQBBBgAEGQAEGQAQZAAQZABAkAFAkAEAQQYAQQYABBkABBkAEGQAEGQAQJABQJABAEEGAEEGAAQZAAQZABBkABBkAECQAUCQAQBBBgBBBgAEGQAEGQAQZAAQZABAkAFAkAEAQQYAQQYABBkABBkAEGQAEGQAQJABQJABAEEGAEEGAAQZAAQZYENsq4YZZmz0SCPMzqIJgJmbOrs62RAzd4oJnJABmL0dJhBkYCsbndpolyFmbOqhRhBkYGvbXZ027fecNGM/YAJBBji3Fde1zOxw/DOd0eiBlhBkYMsXoQua2m6IGVnpwlzoK8gAjc5rod2GmJlntfrxMwQZ2OJObepHzLD5pn2d2eh8TRBkgO94pQlmUeSeUz3YEIIM8B1Pnpa62Ayb2OKf6X6Nfqx6gDUEGeA7djfaN13iM8mbEuP9LTR1cfW03LpUkAG+5znpiY0umva6wGjDrfTg6kV5uVqQAe7AmY32tr2HmGIDT8eXtL2pZ1XPtYYgA9yRxeqiRi+elrx0vYEe0uh11f1MIcgAd+bk6heqC6dXe55a99Pxvna20D+pnmQNQQa4K6c3+qW2da4p1jHGS52y9s3OizRAkAHurqc2+ufTUmeaYh1ifEknNnpV9fO5K5cgAxylCxu9adrXY01xj07Ge1roNWsx9r6xIAMctR3VK6p/PC15z/MYY3yfRq+uXl9ebZhXY9rXZAbgOHC4+nAr/f3qj8fl3WaSuwzxQiud2kK/2ugnqvtYRZAB1qky3Vq9sdHbW+hz47IOG+V7JtrbaHt7Gj2tqV9s9PTciUuQATbotHxVdaipP2i5L45DrZilptd0Ygs9pXppo79RPdAqggywkVaqL1RXN3VV9c5xsM9s2RDv78RWOq+pn2x0YfXoVm+ygiADbJobqk829QfVu6o/HQf76haI8GJTZ7fSsxtdvBbhs4RYkAFm7dvVLU19rdGfVR+srmvqC40+W914HP/dtlcPbeq0Rg9v6uxGz6xOr3at/eOTM4IMANwTvpsCAEEGAAQZAAQZABBkABBkAECQAUCQAQBBBgBBBgAEGQAEGQAQZAAQZABAkAFAkAEAQQYAQQYABBkABBkAEGQAEGQAQJABQJABAEEGAEEGAAQZAAQZABBkABBkAECQAUCQAQBBBgBBBgAEGQAEGQAQZAAQZABAkAFAkAEAQQYAQQYABBkABBkAEGQAEGQAQJABQJABAEEGAEEGAAQZAAQZABBkABBkAECQAUCQAQBBBgBBBgAEGQAEGQAQZAAQZABAkAFAkAEAQQYABBkABBkAEGQAEGQAQJABQJABAEEGAEEGAAQZAAQZABBkABBkAECQAUCQAQBBBgBBBgAEGQAEGQAQZAAQZADg7lpZqG60AwDM1PULTX3UDgAwUx9baPQpOwDArIM89R47AMBMvWeh0VXVDbYAgJm4ofrAQnVzdaU9AGAm/ld100Ir3Vz9XvUNmwDAprq5qf/Z1M0L4/KWq/dXH7ILAGyq91fXjIMdXr0xyNTHm/ov+UwyAGyWG5v6742uq7U7dY2DLVf/qXp3ddhGALChDq8193fGgdXu/tWtM8fBvlK9pbrWTgCwoa6t3rLW3r4ryFXjQFc39ebqy7YCgA3x5abePA509e3/w+//4RLLXdHUG0QZADYkxm9ouSu+97/4viCPQx1upbeJMgBsQIxXets49P3Xa407+1XT3hbb3kWNfrF6arXTlgBw1L5dvaepS8fBO79d9bir32Xa19nV361eVD3MrgBwtxyprqveVf3GOLD68aZjDvLaaXln23t+o+dXz6jOrrbbGgC+z/JaiK+s3tltXTUO9e27+kXj7v7u095G29tdPabR06unVedXZ9geAPp8q3feem9T/7v6aMvdPA413Z1fPI7lT5z2taupkxqd1NRp1SManVXd39cDgC3khqY+VX2y0fVNfb3R18eBbj3a3+j/AZydb/I27BvRAAAAJXRFWHRkYXRlOmNyZWF0ZQAyMDIxLTAxLTI2VDIxOjU4OjE3KzAwOjAwHI60xwAAACV0RVh0ZGF0ZTptb2RpZnkAMjAyMS0wMS0yNlQyMTo1ODoxNyswMDowMG3TDHsAAAAASUVORK5CYII=;fontStyle=1;horizontal=1;labelPosition=center;align=center;" vertex="1" parent="1">
          <mxGeometry x="1490" y="260" width="74" height="78.28" as="geometry" />
        </mxCell>
        <mxCell id="QLCNgAZk5INnTa96BRso-76" value="&lt;h2&gt;Eureka&lt;/h2&gt;" style="rounded=1;whiteSpace=wrap;html=1;" vertex="1" parent="1">
          <mxGeometry x="940" y="720" width="160" height="80" as="geometry" />
        </mxCell>
        <mxCell id="QLCNgAZk5INnTa96BRso-77" value="" style="endArrow=classic;html=1;rounded=0;strokeWidth=1;startArrow=classic;startFill=1;exitX=1;exitY=0.5;exitDx=0;exitDy=0;entryX=0;entryY=0;entryDx=0;entryDy=97.5;entryPerimeter=0;" edge="1" parent="1" source="QLCNgAZk5INnTa96BRso-28" target="QLCNgAZk5INnTa96BRso-53">
          <mxGeometry relative="1" as="geometry">
            <mxPoint x="1340" y="180" as="sourcePoint" />
            <mxPoint x="1440" y="180" as="targetPoint" />
          </mxGeometry>
        </mxCell>
        <mxCell id="QLCNgAZk5INnTa96BRso-78" value="" style="shape=message;html=1;outlineConnect=0;" vertex="1" parent="QLCNgAZk5INnTa96BRso-77">
          <mxGeometry width="20" height="14" relative="1" as="geometry">
            <mxPoint x="-10" y="-7" as="offset" />
          </mxGeometry>
        </mxCell>
        <mxCell id="QLCNgAZk5INnTa96BRso-79" value="" style="endArrow=classic;html=1;rounded=0;strokeWidth=1;startArrow=classic;startFill=1;exitX=1;exitY=0.5;exitDx=0;exitDy=0;entryX=0;entryY=0.5;entryDx=0;entryDy=0;entryPerimeter=0;" edge="1" parent="1" source="QLCNgAZk5INnTa96BRso-39" target="QLCNgAZk5INnTa96BRso-53">
          <mxGeometry relative="1" as="geometry">
            <mxPoint x="1290" y="270" as="sourcePoint" />
            <mxPoint x="1370" y="348" as="targetPoint" />
          </mxGeometry>
        </mxCell>
        <mxCell id="QLCNgAZk5INnTa96BRso-80" value="" style="shape=message;html=1;outlineConnect=0;" vertex="1" parent="QLCNgAZk5INnTa96BRso-79">
          <mxGeometry width="20" height="14" relative="1" as="geometry">
            <mxPoint x="-10" y="-7" as="offset" />
          </mxGeometry>
        </mxCell>
        <mxCell id="QLCNgAZk5INnTa96BRso-83" value="" style="endArrow=classic;html=1;rounded=0;strokeWidth=1;startArrow=classic;startFill=1;exitX=1;exitY=0.5;exitDx=0;exitDy=0;entryX=0;entryY=0;entryDx=0;entryDy=262.5;entryPerimeter=0;" edge="1" parent="1" source="QLCNgAZk5INnTa96BRso-45" target="QLCNgAZk5INnTa96BRso-53">
          <mxGeometry relative="1" as="geometry">
            <mxPoint x="1290" y="430" as="sourcePoint" />
            <mxPoint x="1370" y="430" as="targetPoint" />
          </mxGeometry>
        </mxCell>
        <mxCell id="QLCNgAZk5INnTa96BRso-84" value="" style="shape=message;html=1;outlineConnect=0;" vertex="1" parent="QLCNgAZk5INnTa96BRso-83">
          <mxGeometry width="20" height="14" relative="1" as="geometry">
            <mxPoint x="-10" y="-7" as="offset" />
          </mxGeometry>
        </mxCell>
        <mxCell id="QLCNgAZk5INnTa96BRso-85" value="&lt;h2&gt;Config Server&lt;/h2&gt;" style="rounded=1;whiteSpace=wrap;html=1;" vertex="1" parent="1">
          <mxGeometry x="1140" y="720" width="160" height="80" as="geometry" />
        </mxCell>
        <mxCell id="QLCNgAZk5INnTa96BRso-86" value="&lt;h3&gt;Assynchrone communicatie gebeurt voor notificaties uit te sturen&lt;/h3&gt;" style="text;html=1;align=left;verticalAlign=middle;whiteSpace=wrap;rounded=0;" vertex="1" parent="1">
          <mxGeometry x="420" y="720" width="450" height="30" as="geometry" />
        </mxCell>
        <mxCell id="QLCNgAZk5INnTa96BRso-87" value="&lt;h3&gt;Synchrone communicatie gebeurt voor communicatie tussen de services&lt;/h3&gt;" style="text;html=1;align=left;verticalAlign=middle;whiteSpace=wrap;rounded=0;" vertex="1" parent="1">
          <mxGeometry x="420" y="760" width="460" height="30" as="geometry" />
        </mxCell>
      </root>
    </mxGraphModel>
  </diagram>
</mxfile>
